<?xml version="1.0" encoding="iso-8859-1"?>
<!-- Generator: Adobe Illustrator 18.1.1, SVG Export Plug-In . SVG Version: 6.00 Build 0)  -->
<svg version="1.1" id="Capa_1" xmlns="http://www.w3.org/2000/svg" xmlns:xlink="http://www.w3.org/1999/xlink" x="0px" y="0px"
	 viewBox="0 0 44.172 44.172" style="enable-background:new 0 0 44.172 44.172;" xml:space="preserve">
<g>
	<g id="b147_cherries">
		<path style="fill:#030104;" d="M31.655,28.389c-0.38-0.053-0.768-0.08-1.162-0.08c-1.16,0-2.267,0.178-3.274,0.512
			c-3.397-5.574-7.607-14.09-6.188-20.227c0.105,0.641,0.249,1.246,0.422,1.824c0.546,1.746,1.439,3.154,2.586,4.324
			c1.155,1.158,2.565,2.068,4.36,2.588c0.902,0.258,1.88,0.434,3.001,0.453c1.131-0.004,2.358-0.08,3.871-0.623
			c-0.112-1.146-0.273-2.113-0.484-3.049c-0.217-0.922-0.502-1.758-0.84-2.549c-0.669-1.578-1.594-2.898-2.72-4.025
			c-1.132-1.125-2.455-2.064-4.084-2.711c-0.991-0.377-2.046-0.693-3.282-0.836c1.438-1.18,3.378-2.031,5.8-2.537
			c0.278-0.016,0.555-0.025,0.833-0.025V0c-3.959,0-7.342,1.42-10.049,4.225c-6.354,6.572-7.348,18.922-7.476,24.111
			c-4.307,0.275-7.694,3.025-7.694,7.43c0,4.641,3.765,8.406,8.405,8.406c4.643,0,8.407-3.766,8.407-8.406
			c0-4.25-3.15-6.811-7.244-7.377c-0.145-0.02-0.288-0.033-0.435-0.043c0.132-4.6,0.971-14.963,5.627-21.4
			c-0.002,0.008-0.006,0.016-0.011,0.025c-2.484,6.717,2.114,16.283,5.85,22.434c-2.281,1.225-3.787,3.426-3.787,6.361
			c0,4.641,3.764,8.406,8.405,8.406s8.404-3.766,8.404-8.406C38.897,31.516,35.748,28.955,31.655,28.389z M22.042,5.119
			c2.062,2.223,8.648,8.48,8.648,8.48c-6.453-4.178-9.117-7.848-9.117-7.848L22.042,5.119z"/>
	</g>
</g>
<g>
</g>
<g>
</g>
<g>
</g>
<g>
</g>
<g>
</g>
<g>
</g>
<g>
</g>
<g>
</g>
<g>
</g>
<g>
</g>
<g>
</g>
<g>
</g>
<g>
</g>
<g>
</g>
<g>
</g>
</svg>
