<?xml version="1.0" encoding="iso-8859-1"?>
<!-- Generator: Adobe Illustrator 18.1.1, SVG Export Plug-In . SVG Version: 6.00 Build 0)  -->
<svg version="1.1" id="Capa_1" xmlns="http://www.w3.org/2000/svg" xmlns:xlink="http://www.w3.org/1999/xlink" x="0px" y="0px"
	 viewBox="0 0 473.993 473.993" style="enable-background:new 0 0 473.993 473.993;" xml:space="preserve">
<g>
	<g>
		<path style="fill:#010002;" d="M268.991,228.437c-21.411,0-41.854-1.463-61.029-4.178v176.252
			c2.227-0.049,4.454-0.081,6.706-0.081h108.638c83.22,0,150.688-67.467,150.688-150.688v-54.518c0-13.29-1.894-26.109-5.121-38.383
			C442.284,199.305,365.16,228.437,268.991,228.437z"/>
		<path style="fill:#010002;" d="M276.624,126.034c-0.171,0.528-0.406,1-0.675,1.479c-0.154,0.268-0.195,0.569-0.382,0.829
			l-57.957,79.806c-0.033,0.057-0.081,0.106-0.114,0.154l-0.447,0.618c16.534,2.105,33.937,3.251,51.942,3.251
			c98.9,0,180.422-33.929,192.143-77.734c0.951-3.568,1.504-7.194,1.504-10.876c0-48.934-86.699-88.61-193.647-88.61
			S75.344,74.62,75.344,123.562c0,3.682,0.553,7.308,1.504,10.876c4.292,16.03,17.907,30.734,38.334,42.935l150.744-61.338
			c0.26-0.106,0.536-0.073,0.805-0.154c0.569-0.171,1.122-0.293,1.723-0.333c0.496-0.033,0.967-0.008,1.455,0.049
			c0.536,0.065,1.04,0.154,1.561,0.325c0.52,0.171,0.984,0.398,1.455,0.667c0.276,0.154,0.585,0.195,0.845,0.39
			c0.179,0.13,0.26,0.325,0.431,0.463c0.406,0.341,0.732,0.74,1.073,1.171c0.35,0.447,0.667,0.886,0.919,1.382
			c0.089,0.187,0.252,0.309,0.333,0.504c0.114,0.285,0.081,0.577,0.163,0.862c0.154,0.553,0.276,1.081,0.317,1.65
			c0.033,0.52,0.008,1.008-0.049,1.512C276.884,125.05,276.786,125.538,276.624,126.034z"/>
		<path style="fill:#010002;" d="M195.484,222.308l-0.033-1.089l-0.057-1.845l-0.016-0.585l-0.163-4.958l-0.073-2.414l-0.187-5.966
			l-0.561-17.476l-0.65,0.024c2.666-1.065,4.17-1.666,4.186-1.674c0.471-0.285,14.233-5.918,20.126-8.689
			c0.886-0.415,1.593-0.699,2.406-1.073l25.231-34.733l-111.443,45.349c0.049,0.024,0.098,0.041,0.146,0.065
			c-1.357,0.52-2.723,1.024-4.089,1.544c-2.203,0.837-4.406,1.683-6.617,2.495c-3.373,1.244-6.787,2.374-10.193,3.536
			c-0.244,0.081-0.488,0.171-0.723,0.252c-0.293-0.163-0.593-0.325-0.886-0.488c-1.496-0.366-2.845-1.146-3.926-2.276
			c-17.257-10.193-30.523-22.167-38.846-35.457c-3.227,12.274-5.121,25.093-5.121,38.383v39.627l-42.764,16.599l-16.257,6.308
			l-4.259,1.634l1.658,1.691L0,260.423l4.958,105.037l0.016,0.333l0.561,0.902c4.528,7.21,9.909,13.778,15.68,20.021
			c25.296,27.369,61.85,45.366,105.867,51.234l0.033,1.089l4.186-0.268c0.39-0.024,0.756-0.073,1.089-0.13l2.869,0.374l-0.065-1.723
			c0.585-0.618,0.805-1.349,0.902-2.065l4.007-8.153l11.868-24.134l39.732-80.822l6.552-13.323l-2.658-83.172L195.484,222.308z
			 M138.608,402.503l-4.3,8.746L134,402.047l-3.406-100.786l45.024-83.025l4.105-7.576l3.008-5.544l0.203,6.259l0.276,8.543
			l2.764,86.26L138.608,402.503z"/>
	</g>
</g>
<g>
</g>
<g>
</g>
<g>
</g>
<g>
</g>
<g>
</g>
<g>
</g>
<g>
</g>
<g>
</g>
<g>
</g>
<g>
</g>
<g>
</g>
<g>
</g>
<g>
</g>
<g>
</g>
<g>
</g>
</svg>
