<?xml version="1.0" encoding="iso-8859-1"?>
<!-- Generator: Adobe Illustrator 18.1.1, SVG Export Plug-In . SVG Version: 6.00 Build 0)  -->
<svg version="1.1" id="Capa_1" xmlns="http://www.w3.org/2000/svg" xmlns:xlink="http://www.w3.org/1999/xlink" x="0px" y="0px"
	 viewBox="0 0 482.956 482.956" style="enable-background:new 0 0 482.956 482.956;" xml:space="preserve">
<g>
	<g>
		<path style="fill:#010002;" d="M28.258,32.548c12.217,0.707,24.061,2.52,33.945,8.592c-17.273,22.939-32.059,48.251-30.889,79.579
			c0.398,10.795,7.495,17.769,18.078,17.769c1.975,0,3.999-0.309,6.015-0.756c0.715,3.292,1.544,6.552,2.626,9.689l-0.016-0.008
			c0,0,0.057,0.13,0.073,0.171c1.642,4.739,3.772,9.413,6.251,14.014c17.005,36.619,68.776,138.552,158.41,235.924
			c12.185,15.2,25.524,28.71,39.57,40.18c0.041,0.033,0.073,0.073,0.106,0.106v-0.008c52.99,43.187,115.247,58.201,156.841,32.717
			c55.323-33.896,73.401-134.406,15.387-214.83c-24.524-33.986-65.768-60.826-97.071-77.376l0.024-0.033
			c-0.114-0.041-0.203-0.089-0.317-0.13c-8.893-4.682-17.826-8.543-26.71-11.591c-57.599-28.962-74.108-65.736-74.108-65.736h-0.008
			c-2.983-8.251-7.218-16.355-12.77-24.052c-0.61-0.845-1.325-1.609-1.967-2.439c2.187-2.918,3.853-6.267,4.633-9.949
			c2.073-9.868-2.609-18.623-12.234-22.858c-30.36-13.372-62.558-19.598-101.323-19.598c-6.43,0-12.916,0.171-19.468,0.504
			c-0.74,0.041-1.341,0.171-2.008,0.276C74.737,6.244,51.18,1.367,28.258,0.033C7.302-1.186,7.416,31.337,28.258,32.548z
			 M235,162.711l0.455,0.634c-0.285,0.098-0.569,0.187-0.862,0.293C234.74,163.337,234.862,163.02,235,162.711z M250.834,171.384
			c78.335,40.423,169.944,70.873,184.429,169.855c2.252,15.379-21.24,21.996-23.516,6.487
			c-13.428-91.739-101.103-118.068-173.228-155.288C224.546,185.227,236.886,164.182,250.834,171.384z M121.192,34.287
			c19.728,0.496,37.708,2.723,54.567,6.934c11.583,2.894,22.662,6.698,33.482,11.461c4.333,1.902,6.088,4.999,5.21,9.185
			c-0.211,1.008-0.626,2.024-1.13,3.024c-2.073,4.072-6.381,7.649-11.559,7.649c-1.674,0-3.39-0.382-5.088-1.13
			c-6.397-2.812-13.331-5.251-21.207-7.454l-18.387-5.17l13.176,16.306c0.886,1.057,1.772,2.113,2.577,3.3
			c2.219,3.235,2.577,6.348,1.057,9.234c-1.975,3.755-6.82,6.487-11.502,6.487c-2.682,0-6.478-0.886-9.38-5.137
			c-10.746-15.696-29.791-21.85-43.179-25.109l-3.487-0.845l-2.439,2.626c-22.053,23.841-13.111,49.633-2.869,69.451
			c2.463,4.755,1.268,8.568-0.171,10.925c-2.284,3.755-6.747,6.373-10.852,6.373c-3.479,0-6.186-1.829-8.047-5.43
			c-1.626-3.138-3.39-9.933-4.804-15.387c-1.057-4.064-2.04-7.828-2.943-10.315l-3.593-9.933l-6.804,8.072
			c-2.406,2.861-6.365,5.178-10.242,6.235c-1.439,0.39-2.861,0.642-4.194,0.642c-4.081,0-5.731-1.699-5.901-6.04
			C42.475,92.959,55.814,70.02,71.559,49c0.35,0.39,0.74,0.707,1.081,1.122c1.577,1.91,3.284,3.227,5.048,4.121
			c9.38,4.747,20.354-3.78,21.752-14.217c0.244-1.821,0.138-3.699-0.26-5.576c4.56-0.171,9.12-0.35,13.632-0.35
			C115.672,34.117,118.412,34.222,121.192,34.287z M179.945,211.84l-0.211-0.301c0.146-0.049,0.293-0.081,0.439-0.122
			C180.099,211.555,180.018,211.693,179.945,211.84z"/>
	</g>
</g>
<g>
</g>
<g>
</g>
<g>
</g>
<g>
</g>
<g>
</g>
<g>
</g>
<g>
</g>
<g>
</g>
<g>
</g>
<g>
</g>
<g>
</g>
<g>
</g>
<g>
</g>
<g>
</g>
<g>
</g>
</svg>
