<?xml version="1.0" encoding="iso-8859-1"?>
<!-- Generator: Adobe Illustrator 16.0.0, SVG Export Plug-In . SVG Version: 6.00 Build 0)  -->
<!DOCTYPE svg PUBLIC "-//W3C//DTD SVG 1.1//EN" "http://www.w3.org/Graphics/SVG/1.1/DTD/svg11.dtd">
<svg version="1.1" id="Capa_1" xmlns="http://www.w3.org/2000/svg" xmlns:xlink="http://www.w3.org/1999/xlink" x="0px" y="0px"
	 width="496.088px" height="496.088px" viewBox="0 0 496.088 496.088" style="enable-background:new 0 0 496.088 496.088;"
	 xml:space="preserve">
<g>
	<g>
		<path d="M484.196,11.916c-7.916-7.905-19.33-11.914-33.926-11.914c-39.038,0-98.305,28.232-166.922,79.487
			c-73.471,52.555-168.804,157.055-193.78,190.652C10.885,371.326-18.857,453.312,11.961,484.121
			c7.924,7.948,19.362,11.965,33.952,11.965h0.015c60.561,0,171.379-70.106,275.743-174.484
			c63.721-63.74,115.579-130.434,146.084-187.822C498.664,75.52,504.501,32.243,484.196,11.916z M167.031,354.988
			c-17.072-5.68-38.098-16.131-59.227-29.42c-9.352-5.868-18.583-12.334-27.483-19.224c5.559-7.807,11.49-15.792,17.641-23.817
			c9.113,4.69,18.245,9.916,27.173,15.521c21.081,13.261,39.613,27.702,52.153,40.671c12.526,12.944,13.714,18.924,13.852,20.076
			C190,359.234,184.962,360.982,167.031,354.988z M302.682,244.905c-0.234,0.338-2.095,1.601-7.405,1.601
			c-4.697,0-13.307-1.012-27.634-5.763c-22.948-7.646-51.18-21.68-79.491-39.502c-4.072-2.546-8.088-5.245-12.16-7.991
			c11.509-11.796,23.32-23.356,35.097-34.38c0.902,0.565,1.793,1.111,2.691,1.671c28.294,17.798,53.159,37.2,69.995,54.575
			C300.815,232.737,303.883,242.956,302.682,244.905z M384.958,118.67c0,0-1.013,0.659-4.183,0.659
			c-3.357,0-9.596-0.75-20.233-4.276c-17.058-5.685-38.073-16.123-59.21-29.433c-0.425-0.275-0.832-0.533-1.239-0.797
			c9.832-7.143,19.513-13.874,28.855-19.97C371.44,93.525,386.125,116.01,384.958,118.67z"/>
	</g>
</g>
<g>
</g>
<g>
</g>
<g>
</g>
<g>
</g>
<g>
</g>
<g>
</g>
<g>
</g>
<g>
</g>
<g>
</g>
<g>
</g>
<g>
</g>
<g>
</g>
<g>
</g>
<g>
</g>
<g>
</g>
</svg>
