<?xml version="1.0" encoding="iso-8859-1"?>
<!-- Generator: Adobe Illustrator 16.0.0, SVG Export Plug-In . SVG Version: 6.00 Build 0)  -->
<!DOCTYPE svg PUBLIC "-//W3C//DTD SVG 1.1//EN" "http://www.w3.org/Graphics/SVG/1.1/DTD/svg11.dtd">
<svg version="1.1" id="Capa_1" xmlns="http://www.w3.org/2000/svg" xmlns:xlink="http://www.w3.org/1999/xlink" x="0px" y="0px"
	 width="186.708px" height="186.708px" viewBox="0 0 186.708 186.708" style="enable-background:new 0 0 186.708 186.708;"
	 xml:space="preserve">
<g>
	<path d="M178.44,84.965c-0.116-0.252-0.274-0.414-0.425-0.597c0.844-1.245,0.361-3.37-1.331-4.068
		c-2.573-1.061-5.259-1.861-7.985-2.552c8.213-6.352,12.229-20.897,2.694-27.872c-1.214-0.888-8.731-3.854-8.604-5.197
		c0.239-2.523,0.303-6.162-0.945-8.535c-2.311-4.394-6.402-4.944-10.814-5.013c-2.398-11.672-12.027-19.63-24.646-13.455
		c-6.682,3.269-11.854-1.798-18.689,0.432c-5.287,1.724-6.501,8.248-7.119,13.05c0.012-2.151,0.03-4.303,0.02-6.454
		c-0.006-1.232-0.805-2.101-1.908-2.507c-8.938-3.289-16.042-3.365-24.96,0.026c-0.99,0.376-2.022,1.285-1.889,2.481
		c0.92,8.264,1.707,16.546,2.47,24.829c-6.65-9.265-16.72-17.291-26.909-15.588c1.764-11.499-1.296-33.119-16.409-33.923
		c-14.81-0.788-11.779,19.209-8.597,29.256c-3.778-0.387-7.68,0.419-11.479,0.503c-1.705,0.038-2.644,1.808-1.882,3.279
		c5.296,10.213,14.042,14.66,24.547,11.716c-1.791,4.172-2.195,9.015-1.5,13.38c1.501,9.432,8.236,16.987,15.649,22.595
		c-9.632,0.422-19.229,1.233-28.444,3.108c-0.258-0.454-0.766-0.757-1.477-0.605c-13.873,2.964-14.535,17.781-11.491,29.3
		c0.353,1.334,1.497,1.989,2.783,2.119c2.657,0.269,5.314,0.497,7.969,0.7c2.307,2.676,4.35,7.879,5.672,10.399
		c2.95,5.627,4.629,11.889,6.505,17.929c3.115,10.028,5.907,19.72,10.03,29.403c0.191,0.449,0.487,0.746,0.822,0.977
		c0.12,0.351,0.355,0.679,0.764,0.919c27.623,16.229,71.655,12.997,101.689,5.772c0.496-0.119,0.9-0.309,1.256-0.529
		c1.716,0.555,3.921-0.036,4.775-2.203c7.887-19.998,11.807-41.01,17.178-61.732C178.784,112.69,186.837,103.213,178.44,84.965z
		 M100.572,32.511c0.395,0.788,1.881,0.771,2.165-0.244c2.321-8.298,9.688-12.362,17.753-7.512c0.648,0.39,1.534,0.4,2.182,0
		c9.988-6.166,22.955-5.905,23.465,9.019c0.05,1.458,1.172,2.644,2.658,2.658c7.701,0.073,8.821,5.107,8.115,11.856
		c-0.117,1.121,0.924,2.482,2.033,2.67c16.739,2.838,12.51,15.145,4.527,24.707c-0.232,0.279-0.379,0.575-0.477,0.875
		c-3.537-0.593-7.145-0.997-10.822-1.172c5.869-4.589,9.734-12.296,6.488-19.629c-3.378-7.629-10.71-8.688-17.392-5.817
		c-1.62-4.601-3.88-8.878-8.841-10.546c-4.44-1.493-8.627,2.271-11.696,5.928c-1.993-5.803-6.015-12.146-12.778-8.817
		c-3.574,1.76-6.013,4.707-7.537,8.13C100.493,40.583,100.542,36.547,100.572,32.511z M100.108,58.333
		c0.41-0.144,0.761-0.48,0.774-0.973c0.146-5.247,1.483-10.233,4.807-14.371c6.377-7.94,10.857,1.554,11.955,7.7
		c0.275,1.538,2.686,2.233,3.679,0.971c2.12-2.694,4.021-4.963,6.918-6.901c5.751-3.846,8.255,7.169,8.914,9.681
		c0.444,1.687,2.429,2.426,3.912,1.591c5.328-3.001,11.037-3.508,12.964,3.303c1.74,6.15-3.969,10.976-8.392,13.875
		c-0.841,0.551-1.185,1.295-1.23,2.038c-15.219,0.229-30.889,2.876-44.599,4.277c-0.115,0.012-0.201,0.056-0.303,0.086
		C99.705,72.517,99.916,65.424,100.108,58.333z M79.634,25.43c22.377-8.647,15.254,21.178,14.793,32.786
		c-0.562,14.163-0.946,28.331-1.02,42.504c-2.682-0.796-3.15-0.723-8.113-1.038c-1.04-0.065-1.782,0.348-2.269,0.968
		c-0.093-11.729-0.663-23.412-1.467-35.128C81.208,60.406,74.112,27.564,79.634,25.43z M35.053,42.043
		c-8.66,1.396-15.53-1.565-20.418-8.333c3.454-0.488,6.947-1.02,10.269,0.146c1.319,0.463,2.98-1.048,2.418-2.418
		c-2.434-5.929-8.585-26.59,3.667-26.961c12.635-0.383,12.162,21.815,12.355,29.298c0.012,0.474,0.206,0.86,0.474,1.178
		c-1.833,0.741-3.659,1.795-5.456,3.287C37.042,39.335,35.958,40.632,35.053,42.043z M41.524,42.47
		c4.222-4.265,10.571-4.272,15.753-1.931c8.821,3.984,13.371,12.708,18.098,20.595c0.574,6.28,1.154,12.559,1.79,18.832
		c-8.059,0.275-16.355,0.346-24.666,0.614c-0.055-0.302-0.184-0.595-0.478-0.831C41.975,71.679,29.714,54.399,41.524,42.47z
		 M142.539,173.639c-0.602-0.217-1.272-0.317-2.016-0.214c-32.354,4.47-63.835,5.617-95.91-1.165
		c0.096-0.427,0.111-0.878-0.091-1.367c-4.948-12.011-6.664-25.253-11.348-37.465c-1.784-4.652-3.824-9.629-6.91-13.571
		c-1.764-2.254-3.223-3.306-4.766-4.188c41.173,2.645,82.205-1.531,123.332,2.126c5.948,0.528,11.971,0.359,17.389-0.664
		C154.371,135.513,148.507,154.578,142.539,173.639z M156.183,111.596c-11.451,0.43-22.994-1.767-34.371-2.761
		c-19.721-1.723-40.302,1.378-60.101,1.736c-11.58,0.21-23.168,0.014-34.739-0.446c-2.425-0.097-15.115,0.808-16.122-2.778
		c-2.085-7.428,0.224-14.009,5.22-19.09c0.097,0.008,0.179,0.044,0.285,0.036c20.056-1.569,41.82,2.582,61.401-2.56
		c0.752,7.007,1.585,14.003,2.565,20.982c0.224,1.596,2.73,1.154,2.741-0.371c0.004-0.564-0.012-1.125-0.011-1.688
		c0.487,0.63,1.225,1.072,2.244,1.093c3.378,0.501,6.757,1.003,10.134,1.504c1.783,0.489,3.559-0.889,3.574-2.723
		c0.063-7.423,0.23-14.843,0.428-22.263c0.121,0.039,0.234,0.088,0.378,0.1c24.403,2.067,49.336,2.005,73.823,2.863
		c-0.31,0.562-0.467,1.215-0.344,1.906C176.171,103.216,173.412,110.947,156.183,111.596z"/>
	<path d="M140.284,121.421c-2.979,2.961-5.981,6.088-9.013,9.238c-3.321-2.812-6.876-5.386-10.449-7.979
		c-1.918-1.393-4.408,1.835-2.535,3.287c3.33,2.583,6.611,5.233,9.788,7.999c-3.999,4.114-8.098,8.216-12.394,12.036
		c-0.564-0.484-1.135-0.965-1.688-1.456c-3.536-3.136-7.05-6.3-10.565-9.46c0.863-0.677,1.719-1.372,2.597-2.022
		c1.547-1.145,0.149-3.729-1.544-2.641c-1.211,0.776-2.371,1.616-3.541,2.442c-3.584-3.215-7.172-6.427-10.8-9.594
		c-1.655-1.444-4.073,0.923-2.429,2.43c3.401,3.113,6.766,6.266,10.127,9.422c-4.617,3.5-9.002,7.283-13.359,11.099
		c-4.66-4.039-9.406-7.975-14.213-11.79c3.268-2.518,6.614-4.944,10.17-7.135c1.298-0.8,0.168-2.572-1.165-1.993
		c-4.219,1.833-8.05,4.266-11.648,7.03c-3.892-3.036-7.819-5.964-11.762-8.808c-0.252-0.348-0.596-0.614-1.01-0.733
		c-0.535-0.383-1.066-0.785-1.601-1.164c-1.115-0.789-2.542,1.053-1.463,1.896c0.097,0.076,0.189,0.161,0.286,0.237
		c-3.2,1.794-6.252,3.853-7.94,7.249c-0.825,1.66,1.566,3.098,2.502,1.463c1.838-3.208,5.152-4.772,8.38-6.271
		c3.297,2.724,6.524,5.549,9.677,8.48c-4.269,3.61-8.23,7.64-12.12,11.66c-1.618-1.416-3.244-2.828-4.824-4.267
		c-0.743-0.678-1.777,0.357-1.101,1.101c1.432,1.572,2.874,3.191,4.324,4.82c-0.333,0.344-0.667,0.689-1,1.032
		c-1.085,1.118,0.589,2.792,1.708,1.708c0.311-0.302,0.63-0.59,0.942-0.89c3.794,4.246,7.723,8.497,11.927,12.332
		c-1.681,1.105-3.379,2.188-5.153,3.174c-0.964,0.536-0.295,2.241,0.765,1.815c2.245-0.903,4.411-1.944,6.514-3.093
		c2.235,1.906,4.547,3.688,6.977,5.246c1.463,0.939,3.002-1.162,1.821-2.359c-1.684-1.707-3.448-3.353-5.213-4.996
		c4.508-2.809,8.737-6.094,12.858-9.546c3.14,3.016,6.308,5.993,9.554,8.855c-1.902,0.804-3.834,1.542-5.833,2.138
		c-1.275,0.379-0.736,2.208,0.542,1.967c2.587-0.488,5.134-1.213,7.643-2.104c4.151,3.551,8.413,6.942,12.922,9.977
		c1.786,1.202,3.685-1.44,2.244-2.908c-3.101-3.158-6.306-6.288-9.556-9.4c5.158-2.438,10.11-5.605,14.813-9.211
		c2.711,2.608,5.472,5.236,8.334,7.728c-0.587,0.77-1.204,1.516-1.731,2.337c-1.108,1.726,1.519,3.136,2.688,1.571
		c0.474-0.635,0.976-1.244,1.494-1.838c2.853,2.329,5.813,4.476,8.955,6.232c1.813,1.014,3.56-1.328,2.179-2.824
		c-2.326-2.521-4.875-4.877-7.509-7.162c2.813-2.739,5.69-5.412,7.744-8.829c0.999-1.661-1.487-3.689-2.74-2.113
		c-2.403,3.024-5.147,5.759-7.746,8.61c-2.671-2.226-5.387-4.407-8.06-6.608c4.397-3.674,8.539-7.694,12.402-11.798
		c2.392,2.221,4.728,4.5,6.918,6.934c1.445,1.607,4.182-0.501,2.991-2.309c-1.976-3.003-4.282-5.643-6.799-8.062
		c2.915-3.257,5.703-6.521,8.22-9.681C144.177,122.183,141.944,119.771,140.284,121.421z M67.952,159.815
		c-4.402-3.988-8.949-7.858-13.44-11.754c4.076-3.875,8.221-7.632,12.552-11.163c4.477,4.242,8.882,8.586,13.313,12.893
		C76.351,153.281,72.275,156.706,67.952,159.815z M98.214,158.637c-3.537-3.335-7.152-6.624-10.827-9.865
		c4.336-3.784,8.612-7.644,13-11.265c3.546,3.336,7.085,6.68,10.637,10.009c0.448,0.42,0.898,0.854,1.348,1.281
		C107.902,152.516,103.234,155.919,98.214,158.637z"/>
	<path d="M48.015,53.149c-2.384,4.004-5.472,8.437-5.547,13.282c-0.022,1.436,2.089,1.395,2.2,0
		c0.343-4.294,3.661-8.245,5.339-12.117C50.584,52.983,48.796,51.837,48.015,53.149z"/>
	<path d="M57.324,59.69c-5.269,3.275-9.885,7.335-9.842,13.997c0.013,1.989,2.933,1.951,3.059,0c0.329-5.087,4.462-8.581,8.3-11.402
		C60.366,61.166,59.005,58.646,57.324,59.69z"/>
	<path d="M64.561,69.281c-2.621,2.132-5.91,3.646-8.889,5.201c-1.361,0.711-0.166,2.69,1.192,2.039
		c3.249-1.556,6.781-2.969,9.253-5.684C67.089,69.771,65.647,68.398,64.561,69.281z"/>
</g>
<g>
</g>
<g>
</g>
<g>
</g>
<g>
</g>
<g>
</g>
<g>
</g>
<g>
</g>
<g>
</g>
<g>
</g>
<g>
</g>
<g>
</g>
<g>
</g>
<g>
</g>
<g>
</g>
<g>
</g>
</svg>
