<?xml version="1.0" encoding="iso-8859-1"?>
<!-- Generator: Adobe Illustrator 18.0.0, SVG Export Plug-In . SVG Version: 6.00 Build 0)  -->
<!DOCTYPE svg PUBLIC "-//W3C//DTD SVG 1.1//EN" "http://www.w3.org/Graphics/SVG/1.1/DTD/svg11.dtd">
<svg version="1.1" id="Capa_1" xmlns="http://www.w3.org/2000/svg" xmlns:xlink="http://www.w3.org/1999/xlink" x="0px" y="0px"
	 viewBox="0 0 279.117 279.117" style="enable-background:new 0 0 279.117 279.117;" xml:space="preserve">
<path d="M192.525,136.342c-0.195-3.147-2.704-5.656-5.851-5.852c-0.142-0.009-0.915-0.053-2.193-0.053
	c-0.323,0-0.675,0.004-1.042,0.01c9.727-13.394,9.211-31.303,9.099-33.627V56.367c0-3.452-2.798-6.25-6.25-6.25
	c-3.452,0-6.25,2.798-6.25,6.25v34.476c-5.058,0.349-12.038,1.405-18.883,4.306c1.416-4.176,2.316-8.697,2.316-13.446
	c0-17.736-12.541-32.293-17.661-37.497V6.25c0-3.452-2.798-6.25-6.25-6.25c-3.452,0-6.25,2.798-6.25,6.25v37.955
	c-5.12,5.204-17.661,19.761-17.661,37.497c0,4.749,0.9,9.271,2.316,13.446c-6.845-2.9-13.825-3.957-18.883-4.306V56.367
	c0-3.452-2.798-6.25-6.25-6.25c-3.452,0-6.25,2.798-6.25,6.25V96.82c-0.113,2.324-0.628,20.234,9.099,33.627
	c-0.367-0.006-0.719-0.01-1.042-0.01c-1.279,0-2.052,0.044-2.193,0.053c-3.147,0.195-5.656,2.704-5.851,5.852
	c-0.055,0.883-1.088,19.85,9.087,33.861c-0.367-0.006-0.719-0.01-1.043-0.01c-1.279,0-2.052,0.044-2.194,0.053
	c-3.147,0.195-5.656,2.704-5.851,5.852c-0.061,0.977-1.322,24.088,12.724,38.134c10.575,10.575,26.114,12.499,33.992,12.746v45.89
	c0,3.452,2.798,6.25,6.25,6.25c3.452,0,6.25-2.798,6.25-6.25v-45.89c7.879-0.247,23.416-2.171,33.992-12.746
	c14.046-14.046,12.785-37.157,12.724-38.134c-0.195-3.148-2.704-5.656-5.851-5.852c-0.142-0.009-0.915-0.053-2.194-0.053
	c-0.323,0-0.676,0.004-1.042,0.01C193.613,156.191,192.58,137.225,192.525,136.342z M130.636,174.539
	c-6.224-0.558-16.067-2.486-22.48-8.899c-6.404-6.405-8.338-16.202-8.898-22.485c6.224,0.558,16.065,2.487,22.48,8.901
	C128.142,158.46,130.076,168.257,130.636,174.539z M157.379,152.056c6.409-6.408,16.24-8.34,22.464-8.9
	c-0.573,6.299-2.519,16.12-8.88,22.483c-6.415,6.414-16.258,8.343-22.482,8.9C149.041,168.252,150.977,158.459,157.379,152.056z
	 M170.962,125.883c-6.41,6.408-16.241,8.34-22.466,8.899c0.574-6.299,2.52-16.12,8.882-22.481c6.41-6.408,16.24-8.339,22.464-8.898
	C179.27,109.7,177.324,119.521,170.962,125.883z M139.546,55.901c4.607,5.392,11.424,15.168,11.424,25.801
	c0,10.711-6.802,20.447-11.411,25.815c-4.609-5.368-11.411-15.104-11.411-25.815C128.148,70.998,134.939,61.269,139.546,55.901z
	 M121.738,112.3c6.403,6.404,8.338,16.201,8.897,22.483c-6.224-0.558-16.067-2.486-22.48-8.9
	c-6.404-6.402-8.338-16.199-8.897-22.481C105.481,103.959,115.324,105.887,121.738,112.3z M108.155,205.394
	c-6.403-6.404-8.338-16.201-8.897-22.483c6.223,0.558,16.065,2.486,22.48,8.899c6.403,6.404,8.338,16.201,8.897,22.483
	C124.412,213.735,114.569,211.807,108.155,205.394z M170.962,205.393c-6.41,6.408-16.241,8.34-22.466,8.899
	c0.574-6.299,2.52-16.12,8.882-22.481c6.415-6.414,16.257-8.343,22.48-8.9C179.299,189.196,177.364,198.99,170.962,205.393z"/>
<g>
</g>
<g>
</g>
<g>
</g>
<g>
</g>
<g>
</g>
<g>
</g>
<g>
</g>
<g>
</g>
<g>
</g>
<g>
</g>
<g>
</g>
<g>
</g>
<g>
</g>
<g>
</g>
<g>
</g>
</svg>
