<?xml version="1.0" encoding="iso-8859-1"?>
<!-- Generator: Adobe Illustrator 18.1.1, SVG Export Plug-In . SVG Version: 6.00 Build 0)  -->
<svg version="1.1" id="Capa_1" xmlns="http://www.w3.org/2000/svg" xmlns:xlink="http://www.w3.org/1999/xlink" x="0px" y="0px"
	 viewBox="0 0 45.661 45.661" style="enable-background:new 0 0 45.661 45.661;" xml:space="preserve">
<g>
	<g id="b25_fruit">
		<path d="M22.883,9.395c2.816,0.477,8.001,0,8.001,0L28.651,7.1l2.233-4.475c0,0-2.822,0-4.232,3.385l0.234-3.385L24.535,6.01
			l-3.763-3.385l0.469,3.385l-4.702-3.385l1.879,4.595l-3.056,2.175C15.362,9.395,20.071,8.917,22.883,9.395z"/>
		<path d="M23.699,6.757l-0.79-0.287c0.016-0.042,1.41-4.217-0.993-5.737L22.354,0C25.336,1.884,23.768,6.561,23.699,6.757z"/>
		<path d="M39.848,23.141c0-1.9-1.096-3.528-2.677-4.338c0.433-0.727,0.695-1.567,0.695-2.477c0-2.7-2.188-4.889-4.89-4.889
			c-0.412,0-0.805,0.067-1.186,0.162c-0.896-1.048-2.215-1.728-3.701-1.728c-1.574,0-2.96,0.756-3.853,1.911
			c-0.896-1.155-2.277-1.911-3.853-1.911c-0.896,0-1.725,0.256-2.445,0.678c-0.721-0.421-1.549-0.678-2.442-0.678
			c-2.701,0-4.89,2.188-4.89,4.888c0,0.004,0.002,0.006,0.002,0.009c-2.655,0.051-4.795,2.212-4.795,4.88
			c0,1.245,0.479,2.367,1.24,3.229c-0.761,0.863-1.24,1.984-1.24,3.227c0,1.875,1.066,3.482,2.611,4.304
			c-0.022,0.194-0.059,0.386-0.059,0.585c0,2.348,1.656,4.306,3.863,4.777c0,0.039-0.01,0.075-0.01,0.112
			c0,2.701,2.188,4.889,4.887,4.889c0,2.7,2.189,4.89,4.889,4.89c2.031,0,3.773-1.239,4.51-3.002c0.127,0.01,0.25,0.039,0.38,0.039
			c2.7,0,4.89-2.189,4.89-4.889c0-0.109-0.025-0.208-0.033-0.312c1.873-0.686,3.218-2.466,3.218-4.577
			c0-0.138-0.028-0.269-0.04-0.404c1.732-0.752,2.948-2.474,2.948-4.484c0-0.31-0.034-0.608-0.091-0.903
			C39.026,26.241,39.848,24.79,39.848,23.141z M22.905,16.699c0.234,1.958,1.899,3.478,3.924,3.478c1.924,0,3.524-1.375,3.88-3.197
			c0.017,0.157,0.03,0.315,0.03,0.477c0,2.185-1.772,3.954-3.956,3.954c-2.183,0-3.952-1.77-3.952-3.954
			C22.831,17.198,22.856,16.945,22.905,16.699z M23.356,30.222c0.013,0.106,0.021,0.216,0.021,0.326
			c0,1.496-1.211,2.708-2.709,2.708c-1.495,0-2.707-1.212-2.707-2.708c0-0.178,0.018-0.351,0.051-0.519
			c0.162,1.342,1.303,2.383,2.688,2.383C22.018,32.412,23.113,31.469,23.356,30.222z M15.577,25.059c0-0.178,0.02-0.352,0.051-0.519
			c0.161,1.341,1.303,2.381,2.688,2.381c1.317,0,2.413-0.942,2.655-2.188c0.014,0.107,0.022,0.215,0.022,0.326
			c0,1.495-1.212,2.707-2.709,2.707C16.792,27.766,15.577,26.554,15.577,25.059z M14.081,16.699
			c0.235,1.958,1.902,3.478,3.924,3.478c1.925,0,3.525-1.375,3.879-3.197c0.021,0.157,0.032,0.315,0.032,0.477
			c0,2.185-1.771,3.954-3.954,3.954s-3.954-1.77-3.954-3.954C14.007,17.198,14.035,16.945,14.081,16.699z M7.688,19.529
			c0-0.162,0.018-0.32,0.049-0.473c0.146,1.223,1.186,2.174,2.449,2.174c1.205,0,2.206-0.861,2.428-2
			c0.013,0.097,0.02,0.196,0.02,0.298c0,1.366-1.107,2.473-2.473,2.473C8.795,22.001,7.688,20.895,7.688,19.529z M9.2,25.654
			c0-0.139,0.016-0.273,0.04-0.404c0.126,1.045,1.017,1.856,2.097,1.856c1.028,0,1.883-0.735,2.071-1.706
			c0.01,0.082,0.018,0.167,0.018,0.254c0,1.166-0.946,2.111-2.112,2.111C10.145,27.766,9.2,26.82,9.2,25.654z M12.869,33.521
			c-1.495,0-2.708-1.213-2.708-2.709c0-0.177,0.018-0.35,0.051-0.518c0.161,1.342,1.303,2.38,2.688,2.38
			c1.318,0,2.414-0.94,2.656-2.188c0.014,0.107,0.021,0.217,0.021,0.326C15.577,32.309,14.364,33.521,12.869,33.521z M17.325,38.096
			c-1.496,0-2.709-1.213-2.709-2.708c0-0.177,0.02-0.351,0.052-0.519c0.161,1.341,1.301,2.381,2.687,2.381
			c1.318,0,2.416-0.941,2.657-2.189c0.014,0.108,0.019,0.217,0.019,0.327C20.03,36.883,18.821,38.096,17.325,38.096z M21.916,42.516
			c-1.495,0-2.706-1.214-2.706-2.708c0-0.177,0.015-0.351,0.049-0.519c0.163,1.342,1.303,2.381,2.688,2.381
			c1.317,0,2.413-0.942,2.657-2.189c0.012,0.107,0.019,0.216,0.019,0.327C24.622,41.302,23.413,42.516,21.916,42.516z M24.077,26.67
			c0-0.177,0.018-0.35,0.051-0.517c0.162,1.341,1.301,2.381,2.688,2.381c1.315,0,2.414-0.942,2.654-2.19
			c0.016,0.107,0.023,0.215,0.023,0.326c0,1.497-1.213,2.709-2.71,2.709C25.289,29.379,24.077,28.167,24.077,26.67z M29.493,36.482
			c-1.496,0-2.71-1.212-2.71-2.707c0-0.18,0.02-0.352,0.052-0.52c0.162,1.342,1.301,2.381,2.687,2.381
			c1.317,0,2.415-0.941,2.659-2.189c0.013,0.107,0.016,0.217,0.016,0.328C32.196,35.271,30.989,36.482,29.493,36.482z
			 M33.444,30.992c-1.492,0-2.705-1.213-2.705-2.707c0-0.178,0.018-0.352,0.051-0.52c0.16,1.34,1.299,2.382,2.688,2.382
			c1.316,0,2.413-0.942,2.654-2.19c0.015,0.107,0.021,0.217,0.021,0.328C36.153,29.779,34.942,30.992,33.444,30.992z M35.003,25.228
			c-1.497,0-2.71-1.212-2.71-2.708c0-0.177,0.02-0.349,0.053-0.517c0.158,1.34,1.3,2.381,2.688,2.381
			c1.314,0,2.412-0.942,2.654-2.19c0.014,0.107,0.023,0.215,0.023,0.326C37.711,24.016,36.499,25.228,35.003,25.228z"/>
	</g>
	<g id="Capa_1_70_">
	</g>
</g>
<g>
</g>
<g>
</g>
<g>
</g>
<g>
</g>
<g>
</g>
<g>
</g>
<g>
</g>
<g>
</g>
<g>
</g>
<g>
</g>
<g>
</g>
<g>
</g>
<g>
</g>
<g>
</g>
<g>
</g>
</svg>
