<?xml version="1.0" encoding="iso-8859-1"?>
<!-- Generator: Adobe Illustrator 16.0.0, SVG Export Plug-In . SVG Version: 6.00 Build 0)  -->
<!DOCTYPE svg PUBLIC "-//W3C//DTD SVG 1.1//EN" "http://www.w3.org/Graphics/SVG/1.1/DTD/svg11.dtd">
<svg version="1.1" id="Capa_1" xmlns="http://www.w3.org/2000/svg" xmlns:xlink="http://www.w3.org/1999/xlink" x="0px" y="0px"
	 width="902.228px" height="902.229px" viewBox="0 0 902.228 902.229" style="enable-background:new 0 0 902.228 902.229;"
	 xml:space="preserve">
<g>
	<g>
		<path d="M885.953,250.429c17.2-3.2,22.2-25.5,8-35.8c-24.199-17.6-55.3-35-78.6-29.8l48.4-120.3c6.6-16.3-9.7-32.6-26-26
			l-120.4,48.3c5.2-23.3-12.2-54.4-29.8-78.6c-10.3-14.1-32.601-9.2-35.8,8c-9.2,49.5-32.2,105.2-43.9,131.5
			c12.9,8.3,25,18.1,36.2,29.2l81.2,81.2c11.199,11.2,20.899,23.2,29.3,36.2C780.753,282.629,836.453,259.629,885.953,250.429z"/>
		<path d="M698.153,285.229l-81.2-81.2c-35.399-35.4-81-52.4-126.199-52.4c-61.7,0-122.7,31.7-156.2,91.3l-89.2,158.5l96.8,159.6
			l-139.1-84.399l-196.2,349.1c-20.6,36.7,8.5,76.5,44.3,76.5c8.2,0,16.8-2.1,25.3-6.8l152.5-85.7l-51.2-95l112.4,60.601
			l313.4-176.101l-86-150.2l171.3,98.101C765.453,480.929,773.153,360.329,698.153,285.229z"/>
	</g>
</g>
<g>
</g>
<g>
</g>
<g>
</g>
<g>
</g>
<g>
</g>
<g>
</g>
<g>
</g>
<g>
</g>
<g>
</g>
<g>
</g>
<g>
</g>
<g>
</g>
<g>
</g>
<g>
</g>
<g>
</g>
</svg>
