<?xml version="1.0" encoding="iso-8859-1"?>
<!-- Generator: Adobe Illustrator 16.0.0, SVG Export Plug-In . SVG Version: 6.00 Build 0)  -->
<!DOCTYPE svg PUBLIC "-//W3C//DTD SVG 1.1//EN" "http://www.w3.org/Graphics/SVG/1.1/DTD/svg11.dtd">
<svg version="1.1" id="Capa_1" xmlns="http://www.w3.org/2000/svg" xmlns:xlink="http://www.w3.org/1999/xlink" x="0px" y="0px"
	 width="286.52px" height="286.52px" viewBox="0 0 286.52 286.52" style="enable-background:new 0 0 286.52 286.52;"
	 xml:space="preserve">
<g>
	<g>
		<path d="M143.262,0C79.833,0,28.231,51.603,28.231,115.029c0,9.402,1.247,19.012,3.712,28.596c0.063,0.65,0.203,1.301,0.432,1.93
			c0.724,2.017,7.193,19.906,11.669,27.462c22.889,43.514,54.266,80.755,93.275,110.71c0.713,0.823,1.602,1.509,2.61,2.011
			c0.937,0.468,1.95,0.717,2.981,0.762c0.195,0.016,0.388,0.021,0.586,0.021c1.242,0,2.5-0.289,3.666-0.853
			c0.889-0.438,1.67-1.047,2.321-1.772c87.28-66.842,104.291-136.902,104.921-139.64c2.58-9.815,3.885-19.646,3.885-29.226
			C258.293,51.603,206.692,0,143.262,0z M81.644,61.21l57.021-11.75c1.556-0.317,3.458,0.531,4.255,1.899l32.502,55.771
			c0.589,1.016,0.457,5.322-0.233,7.77c-2.966,0.64-5.921,1.31-8.836,1.998c-7.033,1.658-14.3,3.374-21.597,4.237
			c-1.737,0.208-3.567,0.312-5.441,0.312c-8.241,0-16.566-1.935-25.379-3.979c-4.893-1.14-9.884-2.262-14.939-3.077l39.55-23.859
			c1.358-0.815,1.935-2.656,1.29-4.103l-7.233-16.275c-0.645-1.445-2.427-2.372-3.976-2.064l-42.67,8.449
			c-1.556,0.308-3.161-0.675-3.592-2.204l-2.752-9.775C79.183,63.03,80.095,61.535,81.644,61.21z M139.309,129.247
			c2.118,0,4.238-0.109,6.36-0.365c18.103-2.148,34.698-8.907,50.871-8.902c10.39,0,20.602,2.793,30.92,11.388
			c2.803,2.336,0.233,5.959-2.707,5.959c-0.797,0-1.609-0.264-2.366-0.889c-8.673-7.224-17.229-9.625-25.831-9.625
			c-17.047,0-34.267,9.422-52.893,9.422c-0.609,0-1.224-0.01-1.836-0.03c-17.135-0.582-35.703-8.3-53.07-8.3
			c-8.691,0-17.087,1.935-24.846,7.66c-0.65,0.477-1.295,0.686-1.897,0.686c-2.856,0-4.763-4.639-1.721-6.878
			c8.5-6.276,17.123-8.364,25.85-8.364c0.566,0,1.137,0.079,1.708,0.094c8.488,0.256,17.067,2.278,25.74,4.286
			C122.087,127.358,130.656,129.247,139.309,129.247z M222.392,155.985c-8.673-7.221-17.224-9.628-25.831-9.628
			c-17.047,0-34.267,9.425-52.893,9.425c-0.609,0-1.224-0.011-1.835-0.03c-17.136-0.584-35.704-8.298-53.07-8.298
			c-8.696,0-17.087,1.93-24.847,7.657c-0.65,0.478-1.295,0.686-1.896,0.686c-2.854,0-4.763-4.636-1.722-6.88
			c8.5-6.276,17.123-8.358,25.85-8.358c17.336,0,35.086,8.236,53.166,8.236c2.113,0,4.24-0.117,6.36-0.365
			c18.108-2.148,34.698-8.91,50.871-8.91c10.39,0,20.602,2.795,30.925,11.387c2.804,2.336,0.233,5.962-2.712,5.962
			C223.966,156.874,223.144,156.604,222.392,155.985z M190.254,104.827c-9.775,0-17.697-7.919-17.697-17.689
			c0-9.77,7.922-17.696,17.697-17.696c9.77,0,17.696,7.922,17.696,17.696C207.951,96.913,200.024,104.827,190.254,104.827z"/>
	</g>
</g>
<g>
</g>
<g>
</g>
<g>
</g>
<g>
</g>
<g>
</g>
<g>
</g>
<g>
</g>
<g>
</g>
<g>
</g>
<g>
</g>
<g>
</g>
<g>
</g>
<g>
</g>
<g>
</g>
<g>
</g>
</svg>
